<svg width="22" height="18" viewBox="0 0 22 18" fill="none" xmlns="http://www.w3.org/2000/svg">
<path d="M6.625 9.25C6.625 6.78906 8.62891 4.75 11.125 4.75C13.5859 4.75 15.625 6.78906 15.625 9.25C15.625 11.7461 13.5859 13.75 11.125 13.75C8.62891 13.75 6.625 11.7461 6.625 9.25ZM11.125 12.0625C12.6719 12.0625 13.9375 10.832 13.9375 9.25C13.9375 7.70312 12.6719 6.4375 11.125 6.4375C11.0898 6.4375 11.0547 6.4375 11.0195 6.4375C11.0898 6.64844 11.125 6.82422 11.125 7C11.125 8.26562 10.1055 9.25 8.875 9.25C8.66406 9.25 8.48828 9.25 8.3125 9.17969C8.3125 9.21484 8.3125 9.25 8.3125 9.25C8.3125 10.832 9.54297 12.0625 11.125 12.0625ZM4.33984 4.22266C5.99219 2.67578 8.27734 1.375 11.125 1.375C13.9375 1.375 16.2227 2.67578 17.875 4.22266C19.5273 5.73438 20.6172 7.5625 21.1445 8.82812C21.25 9.10938 21.25 9.42578 21.1445 9.70703C20.6172 10.9375 19.5273 12.7656 17.875 14.3125C16.2227 15.8594 13.9375 17.125 11.125 17.125C8.27734 17.125 5.99219 15.8594 4.33984 14.3125C2.6875 12.7656 1.59766 10.9375 1.07031 9.70703C0.964844 9.42578 0.964844 9.10938 1.07031 8.82812C1.59766 7.5625 2.6875 5.73438 4.33984 4.22266ZM11.125 3.0625C8.80469 3.0625 6.94141 4.11719 5.5 5.45312C4.12891 6.71875 3.21484 8.19531 2.72266 9.25C3.21484 10.3047 4.12891 11.8164 5.5 13.082C6.94141 14.418 8.80469 15.4375 11.125 15.4375C13.4102 15.4375 15.2734 14.418 16.7148 13.082C18.0859 11.8164 19 10.3047 19.4922 9.25C19 8.19531 18.0859 6.71875 16.7148 5.45312C15.2734 4.11719 13.4102 3.0625 11.125 3.0625Z" fill="#11233C"/>
</svg>
