<svg width="24" height="19" viewBox="0 0 24 19" fill="none" xmlns="http://www.w3.org/2000/svg">
<path d="M6.27344 3.51953C7.85547 2.32422 9.82422 1.375 12.25 1.375C15.0625 1.375 17.3477 2.67578 19 4.22266C20.6523 5.73438 21.7422 7.5625 22.2695 8.82812C22.375 9.10938 22.375 9.42578 22.2695 9.70703C21.8125 10.832 20.8633 12.4492 19.457 13.8555L23.1484 16.7734C23.5352 17.0547 23.6055 17.582 23.2891 17.9336C23.0078 18.3203 22.4805 18.3906 22.1289 18.0742L1.31641 1.76172C0.929688 1.48047 0.859375 0.953125 1.17578 0.601562C1.45703 0.214844 1.98438 0.144531 2.33594 0.460938L6.27344 3.51953ZM7.64453 4.60938L9.26172 5.875C10.0703 5.17188 11.0898 4.75 12.25 4.75C14.7109 4.75 16.75 6.78906 16.75 9.25C16.75 10.0234 16.5391 10.7266 16.2227 11.3242L18.1211 12.8008C19.3164 11.6055 20.1602 10.2344 20.6172 9.25C20.125 8.19531 19.2109 6.71875 17.8398 5.45312C16.3984 4.11719 14.5352 3.0625 12.25 3.0625C10.457 3.0625 8.91016 3.69531 7.64453 4.60938ZM14.8516 10.2695C14.9922 9.95312 15.0625 9.60156 15.0625 9.25C15.0625 7.70312 13.7969 6.4375 12.25 6.4375C12.2148 6.4375 12.1797 6.4375 12.1445 6.4375C12.2148 6.64844 12.25 6.82422 12.25 7C12.25 7.38672 12.1445 7.70312 12.0039 8.01953L14.8516 10.2695ZM15.2031 14.8398L16.6797 16C15.3789 16.7031 13.9023 17.125 12.25 17.125C9.40234 17.125 7.11719 15.8594 5.46484 14.3125C3.8125 12.7656 2.72266 10.9375 2.19531 9.70703C2.08984 9.42578 2.08984 9.10938 2.19531 8.82812C2.54688 8.01953 3.10938 7 3.91797 5.94531L5.21875 7C4.58594 7.80859 4.12891 8.61719 3.84766 9.25C4.33984 10.3047 5.25391 11.8164 6.625 13.082C8.06641 14.418 9.92969 15.4375 12.25 15.4375C13.3047 15.4375 14.2891 15.2266 15.2031 14.8398ZM7.75 9.25C7.75 9.17969 7.75 9.07422 7.75 8.96875L9.71875 10.5156C10.0703 11.2539 10.7734 11.8164 11.6172 11.9922L13.5859 13.5742C13.1641 13.6797 12.707 13.75 12.2148 13.75C9.75391 13.75 7.71484 11.7461 7.71484 9.25H7.75Z" fill="#11233C"/>
</svg>
